<mxfile host="Electron" agent="Mozilla/5.0 (Windows NT 10.0; Win64; x64) AppleWebKit/537.36 (KHTML, like Gecko) draw.io/26.0.9 Chrome/128.0.6613.186 Electron/32.2.5 Safari/537.36" version="26.0.9">
  <diagram name="Страница — 1" id="f102mcZQ6aJ1ya85be7P">
    <mxGraphModel dx="1295" dy="768" grid="0" gridSize="10" guides="1" tooltips="1" connect="1" arrows="1" fold="1" page="1" pageScale="1" pageWidth="827" pageHeight="1169" math="0" shadow="0">
      <root>
        <mxCell id="0" />
        <mxCell id="1" parent="0" />
        <mxCell id="U053YYmssVD8oeZbk-P4-6" value="Да" style="text;html=1;align=center;verticalAlign=middle;whiteSpace=wrap;rounded=0;" vertex="1" parent="1">
          <mxGeometry x="630" y="315" width="60" height="30" as="geometry" />
        </mxCell>
        <mxCell id="U053YYmssVD8oeZbk-P4-24" value="Нет" style="text;html=1;align=center;verticalAlign=middle;whiteSpace=wrap;rounded=0;" vertex="1" parent="1">
          <mxGeometry x="470" y="315" width="60" height="30" as="geometry" />
        </mxCell>
        <mxCell id="U053YYmssVD8oeZbk-P4-37" style="edgeStyle=orthogonalEdgeStyle;rounded=0;orthogonalLoop=1;jettySize=auto;html=1;exitX=0.5;exitY=1;exitDx=0;exitDy=0;entryX=0.5;entryY=0;entryDx=0;entryDy=0;endArrow=none;startFill=0;" edge="1" parent="1" source="U053YYmssVD8oeZbk-P4-33" target="U053YYmssVD8oeZbk-P4-36">
          <mxGeometry relative="1" as="geometry" />
        </mxCell>
        <mxCell id="U053YYmssVD8oeZbk-P4-33" value="начало" style="rounded=1;whiteSpace=wrap;html=1;arcSize=50;" vertex="1" parent="1">
          <mxGeometry x="520" y="40" width="120" height="30" as="geometry" />
        </mxCell>
        <mxCell id="U053YYmssVD8oeZbk-P4-39" style="edgeStyle=orthogonalEdgeStyle;shape=connector;rounded=0;orthogonalLoop=1;jettySize=auto;html=1;exitX=0.5;exitY=1;exitDx=0;exitDy=0;entryX=0.5;entryY=0;entryDx=0;entryDy=0;strokeColor=default;align=center;verticalAlign=middle;fontFamily=Helvetica;fontSize=11;fontColor=default;labelBackgroundColor=default;startFill=0;endArrow=none;" edge="1" parent="1" source="U053YYmssVD8oeZbk-P4-36" target="U053YYmssVD8oeZbk-P4-38">
          <mxGeometry relative="1" as="geometry" />
        </mxCell>
        <mxCell id="U053YYmssVD8oeZbk-P4-36" value="n, numbers" style="shape=parallelogram;perimeter=parallelogramPerimeter;whiteSpace=wrap;html=1;fixedSize=1;" vertex="1" parent="1">
          <mxGeometry x="520" y="85" width="120" height="60" as="geometry" />
        </mxCell>
        <mxCell id="U053YYmssVD8oeZbk-P4-41" style="edgeStyle=orthogonalEdgeStyle;shape=connector;rounded=0;orthogonalLoop=1;jettySize=auto;html=1;exitX=0.5;exitY=1;exitDx=0;exitDy=0;entryX=0.5;entryY=0;entryDx=0;entryDy=0;strokeColor=default;align=center;verticalAlign=middle;fontFamily=Helvetica;fontSize=11;fontColor=default;labelBackgroundColor=default;startFill=0;endArrow=none;" edge="1" parent="1" source="U053YYmssVD8oeZbk-P4-38" target="U053YYmssVD8oeZbk-P4-40">
          <mxGeometry relative="1" as="geometry" />
        </mxCell>
        <mxCell id="U053YYmssVD8oeZbk-P4-38" value="maxLen := 0&lt;div&gt;currentLen := 0&lt;/div&gt;" style="rounded=0;whiteSpace=wrap;html=1;" vertex="1" parent="1">
          <mxGeometry x="520" y="165" width="120" height="60" as="geometry" />
        </mxCell>
        <mxCell id="U053YYmssVD8oeZbk-P4-40" value="&lt;font&gt;&lt;font face=&quot;Helvetica&quot; style=&quot;background-color: light-dark(rgb(255, 255, 255), rgb(18, 18, 18));&quot;&gt;i := 1, i&amp;nbsp;&lt;/font&gt;&lt;span style=&quot;background-color: transparent; color: light-dark(rgb(0, 0, 0), rgb(255, 255, 255));&quot;&gt;≤&amp;nbsp;&lt;/span&gt;&lt;font face=&quot;Helvetica&quot; style=&quot;background-color: light-dark(rgb(255, 255, 255), rgb(18, 18, 18));&quot;&gt;&lt;font&gt;n&lt;/font&gt;, i:=i+1&lt;/font&gt;&lt;/font&gt;" style="shape=hexagon;perimeter=hexagonPerimeter2;whiteSpace=wrap;html=1;fixedSize=1;" vertex="1" parent="1">
          <mxGeometry x="520" y="240" width="120" height="60" as="geometry" />
        </mxCell>
        <mxCell id="U053YYmssVD8oeZbk-P4-52" style="edgeStyle=orthogonalEdgeStyle;shape=connector;rounded=0;orthogonalLoop=1;jettySize=auto;html=1;exitX=0;exitY=0.5;exitDx=0;exitDy=0;exitPerimeter=0;strokeColor=default;align=center;verticalAlign=middle;fontFamily=Helvetica;fontSize=11;fontColor=default;labelBackgroundColor=default;startFill=0;endArrow=none;entryX=0.5;entryY=0;entryDx=0;entryDy=0;" edge="1" parent="1" source="U053YYmssVD8oeZbk-P4-43" target="U053YYmssVD8oeZbk-P4-54">
          <mxGeometry relative="1" as="geometry">
            <mxPoint x="480" y="390" as="targetPoint" />
          </mxGeometry>
        </mxCell>
        <mxCell id="U053YYmssVD8oeZbk-P4-53" style="edgeStyle=orthogonalEdgeStyle;shape=connector;rounded=0;orthogonalLoop=1;jettySize=auto;html=1;exitX=1;exitY=0.5;exitDx=0;exitDy=0;exitPerimeter=0;entryX=0.5;entryY=0;entryDx=0;entryDy=0;strokeColor=default;align=center;verticalAlign=middle;fontFamily=Helvetica;fontSize=11;fontColor=default;labelBackgroundColor=default;startFill=0;endArrow=none;" edge="1" parent="1" source="U053YYmssVD8oeZbk-P4-43" target="U053YYmssVD8oeZbk-P4-46">
          <mxGeometry relative="1" as="geometry" />
        </mxCell>
        <mxCell id="U053YYmssVD8oeZbk-P4-43" value="&lt;br&gt;&lt;span style=&quot;font-family: Calibri, sans-serif;&quot; lang=&quot;EN-US&quot;&gt;numbers[i] =&amp;nbsp;&lt;/span&gt;&lt;div&gt;&lt;span style=&quot;font-family: Calibri, sans-serif;&quot; lang=&quot;EN-US&quot;&gt;numbers[i - 1]&lt;/span&gt;&lt;div&gt;&lt;br&gt;&lt;/div&gt;&lt;/div&gt;" style="strokeWidth=1;html=1;shape=mxgraph.flowchart.decision;whiteSpace=wrap;spacing=2;fontSize=12;" vertex="1" parent="1">
          <mxGeometry x="520" y="310" width="120" height="60" as="geometry" />
        </mxCell>
        <mxCell id="U053YYmssVD8oeZbk-P4-44" style="edgeStyle=orthogonalEdgeStyle;rounded=0;orthogonalLoop=1;jettySize=auto;html=1;exitX=0.5;exitY=1;exitDx=0;exitDy=0;entryX=0.5;entryY=0;entryDx=0;entryDy=0;entryPerimeter=0;endArrow=none;startFill=0;" edge="1" parent="1" target="U053YYmssVD8oeZbk-P4-43">
          <mxGeometry relative="1" as="geometry">
            <mxPoint x="580" y="300" as="sourcePoint" />
          </mxGeometry>
        </mxCell>
        <mxCell id="U053YYmssVD8oeZbk-P4-46" value="&lt;div&gt;currentLen := currentLen + 1&lt;/div&gt;" style="rounded=0;whiteSpace=wrap;html=1;" vertex="1" parent="1">
          <mxGeometry x="620" y="385" width="120" height="60" as="geometry" />
        </mxCell>
        <mxCell id="U053YYmssVD8oeZbk-P4-47" value="Да" style="text;html=1;align=center;verticalAlign=middle;whiteSpace=wrap;rounded=0;" vertex="1" parent="1">
          <mxGeometry x="670" y="515" width="60" height="30" as="geometry" />
        </mxCell>
        <mxCell id="U053YYmssVD8oeZbk-P4-48" style="edgeStyle=orthogonalEdgeStyle;rounded=0;orthogonalLoop=1;jettySize=auto;html=1;exitX=0.5;exitY=1;exitDx=0;exitDy=0;exitPerimeter=0;endArrow=none;startFill=0;entryX=0.5;entryY=0;entryDx=0;entryDy=0;" edge="1" parent="1" source="U053YYmssVD8oeZbk-P4-49">
          <mxGeometry relative="1" as="geometry">
            <mxPoint x="680" y="565" as="targetPoint" />
          </mxGeometry>
        </mxCell>
        <mxCell id="U053YYmssVD8oeZbk-P4-60" style="edgeStyle=orthogonalEdgeStyle;shape=connector;rounded=0;orthogonalLoop=1;jettySize=auto;html=1;exitX=0;exitY=0.5;exitDx=0;exitDy=0;exitPerimeter=0;strokeColor=default;align=center;verticalAlign=middle;fontFamily=Helvetica;fontSize=11;fontColor=default;labelBackgroundColor=default;startFill=0;endArrow=none;" edge="1" parent="1" source="U053YYmssVD8oeZbk-P4-49">
          <mxGeometry relative="1" as="geometry">
            <mxPoint x="580" y="630" as="targetPoint" />
          </mxGeometry>
        </mxCell>
        <mxCell id="U053YYmssVD8oeZbk-P4-49" value="&lt;div&gt;&lt;div&gt;currentLen &amp;gt;&amp;nbsp;&lt;/div&gt;&lt;div&gt;maxLen&lt;/div&gt;&lt;/div&gt;" style="strokeWidth=1;html=1;shape=mxgraph.flowchart.decision;whiteSpace=wrap;spacing=2;fontSize=12;" vertex="1" parent="1">
          <mxGeometry x="620" y="460" width="120" height="60" as="geometry" />
        </mxCell>
        <mxCell id="U053YYmssVD8oeZbk-P4-57" style="edgeStyle=orthogonalEdgeStyle;shape=connector;rounded=0;orthogonalLoop=1;jettySize=auto;html=1;exitX=0.5;exitY=1;exitDx=0;exitDy=0;strokeColor=default;align=center;verticalAlign=middle;fontFamily=Helvetica;fontSize=11;fontColor=default;labelBackgroundColor=default;startFill=0;endArrow=none;" edge="1" parent="1" source="U053YYmssVD8oeZbk-P4-50">
          <mxGeometry relative="1" as="geometry">
            <mxPoint x="590" y="630" as="targetPoint" />
            <Array as="points">
              <mxPoint x="680" y="630" />
            </Array>
          </mxGeometry>
        </mxCell>
        <mxCell id="U053YYmssVD8oeZbk-P4-50" value="&lt;div&gt;maxLen := currentLen&amp;nbsp;&lt;/div&gt;" style="rounded=0;whiteSpace=wrap;html=1;" vertex="1" parent="1">
          <mxGeometry x="620" y="545" width="120" height="60" as="geometry" />
        </mxCell>
        <mxCell id="U053YYmssVD8oeZbk-P4-51" style="edgeStyle=orthogonalEdgeStyle;shape=connector;rounded=0;orthogonalLoop=1;jettySize=auto;html=1;exitX=0.5;exitY=1;exitDx=0;exitDy=0;entryX=0.5;entryY=0;entryDx=0;entryDy=0;entryPerimeter=0;strokeColor=default;align=center;verticalAlign=middle;fontFamily=Helvetica;fontSize=11;fontColor=default;labelBackgroundColor=default;startFill=0;endArrow=none;" edge="1" parent="1" source="U053YYmssVD8oeZbk-P4-46" target="U053YYmssVD8oeZbk-P4-49">
          <mxGeometry relative="1" as="geometry" />
        </mxCell>
        <mxCell id="U053YYmssVD8oeZbk-P4-56" style="edgeStyle=orthogonalEdgeStyle;shape=connector;rounded=0;orthogonalLoop=1;jettySize=auto;html=1;exitX=0.5;exitY=1;exitDx=0;exitDy=0;strokeColor=default;align=center;verticalAlign=middle;fontFamily=Helvetica;fontSize=11;fontColor=default;labelBackgroundColor=default;startFill=0;endArrow=oval;endFill=1;" edge="1" parent="1" source="U053YYmssVD8oeZbk-P4-54">
          <mxGeometry relative="1" as="geometry">
            <mxPoint x="580" y="630" as="targetPoint" />
            <Array as="points">
              <mxPoint x="480" y="630" />
              <mxPoint x="590" y="630" />
            </Array>
          </mxGeometry>
        </mxCell>
        <mxCell id="U053YYmssVD8oeZbk-P4-54" value="&lt;div&gt;currentLen := 1&lt;/div&gt;" style="rounded=0;whiteSpace=wrap;html=1;" vertex="1" parent="1">
          <mxGeometry x="420" y="385" width="120" height="60" as="geometry" />
        </mxCell>
        <mxCell id="U053YYmssVD8oeZbk-P4-58" value="" style="endArrow=classic;html=1;rounded=0;strokeColor=default;align=center;verticalAlign=middle;fontFamily=Helvetica;fontSize=11;fontColor=default;labelBackgroundColor=default;edgeStyle=orthogonalEdgeStyle;" edge="1" parent="1">
          <mxGeometry width="50" height="50" relative="1" as="geometry">
            <mxPoint x="579.43" y="630" as="sourcePoint" />
            <mxPoint x="579.43" y="650" as="targetPoint" />
            <Array as="points">
              <mxPoint x="579.43" y="640" />
              <mxPoint x="579.43" y="640" />
            </Array>
          </mxGeometry>
        </mxCell>
        <mxCell id="U053YYmssVD8oeZbk-P4-59" value="" style="endArrow=classic;html=1;rounded=0;strokeColor=default;align=center;verticalAlign=middle;fontFamily=Helvetica;fontSize=11;fontColor=default;labelBackgroundColor=default;edgeStyle=orthogonalEdgeStyle;" edge="1" parent="1">
          <mxGeometry width="50" height="50" relative="1" as="geometry">
            <mxPoint x="580" y="650" as="sourcePoint" />
            <mxPoint x="400" y="650" as="targetPoint" />
          </mxGeometry>
        </mxCell>
        <mxCell id="U053YYmssVD8oeZbk-P4-61" value="Нет" style="text;html=1;align=center;verticalAlign=middle;whiteSpace=wrap;rounded=0;" vertex="1" parent="1">
          <mxGeometry x="580" y="465" width="60" height="30" as="geometry" />
        </mxCell>
        <mxCell id="U053YYmssVD8oeZbk-P4-62" value="" style="endArrow=classic;html=1;rounded=0;strokeColor=default;align=center;verticalAlign=middle;fontFamily=Helvetica;fontSize=11;fontColor=default;labelBackgroundColor=default;edgeStyle=orthogonalEdgeStyle;entryX=0;entryY=0.5;entryDx=0;entryDy=0;" edge="1" parent="1" target="U053YYmssVD8oeZbk-P4-40">
          <mxGeometry width="50" height="50" relative="1" as="geometry">
            <mxPoint x="400" y="650" as="sourcePoint" />
            <mxPoint x="490" y="480" as="targetPoint" />
            <Array as="points">
              <mxPoint x="400" y="270" />
            </Array>
          </mxGeometry>
        </mxCell>
        <mxCell id="U053YYmssVD8oeZbk-P4-64" value="конец" style="rounded=1;whiteSpace=wrap;html=1;arcSize=50;" vertex="1" parent="1">
          <mxGeometry x="520" y="760" width="120" height="30" as="geometry" />
        </mxCell>
        <mxCell id="U053YYmssVD8oeZbk-P4-66" value="" style="edgeStyle=orthogonalEdgeStyle;shape=connector;rounded=0;orthogonalLoop=1;jettySize=auto;html=1;exitX=1;exitY=0.5;exitDx=0;exitDy=0;strokeColor=default;align=center;verticalAlign=middle;fontFamily=Helvetica;fontSize=11;fontColor=default;labelBackgroundColor=default;startFill=0;endArrow=none;entryX=0.5;entryY=0;entryDx=0;entryDy=0;" edge="1" parent="1" source="U053YYmssVD8oeZbk-P4-40" target="U053YYmssVD8oeZbk-P4-65">
          <mxGeometry relative="1" as="geometry">
            <mxPoint x="590" y="730" as="targetPoint" />
            <mxPoint x="640" y="270" as="sourcePoint" />
            <Array as="points">
              <mxPoint x="760" y="270" />
              <mxPoint x="760" y="660" />
            </Array>
          </mxGeometry>
        </mxCell>
        <mxCell id="U053YYmssVD8oeZbk-P4-67" style="edgeStyle=orthogonalEdgeStyle;shape=connector;rounded=0;orthogonalLoop=1;jettySize=auto;html=1;exitX=0.5;exitY=1;exitDx=0;exitDy=0;strokeColor=default;align=center;verticalAlign=middle;fontFamily=Helvetica;fontSize=11;fontColor=default;labelBackgroundColor=default;startFill=0;endArrow=none;" edge="1" parent="1" source="U053YYmssVD8oeZbk-P4-65" target="U053YYmssVD8oeZbk-P4-64">
          <mxGeometry relative="1" as="geometry" />
        </mxCell>
        <mxCell id="U053YYmssVD8oeZbk-P4-65" value="maxLen" style="shape=parallelogram;perimeter=parallelogramPerimeter;whiteSpace=wrap;html=1;fixedSize=1;" vertex="1" parent="1">
          <mxGeometry x="520" y="680" width="120" height="60" as="geometry" />
        </mxCell>
      </root>
    </mxGraphModel>
  </diagram>
</mxfile>
